<?xml version="1.0" encoding="iso-8859-1"?>
<!-- Generator: Adobe Illustrator 19.0.0, SVG Export Plug-In . SVG Version: 6.00 Build 0)  -->
<svg version="1.1" id="Layer_1" xmlns="http://www.w3.org/2000/svg" xmlns:xlink="http://www.w3.org/1999/xlink" x="0px" y="0px"
	 viewBox="0 0 232.422 232.422" style="enable-background:new 0 0 232.422 232.422;" xml:space="preserve">
<g>
	<g>
		<g>
			<path d="M176.021,187.793c5.415-9.486,8.514-20.372,8.514-31.95c0-15.61-12.143-38.141-25.992-58.764l55.853-55.853
				c1.578-1.578,1.578-4.135,0-5.714c-1.578-1.579-4.135-1.578-5.714,0l-54.796,54.796c-16.448-23.438-33.641-42.954-35.014-44.503
				c-1.535-1.732-4.514-1.732-6.049,0c-1.365,1.54-18.358,20.827-34.714,44.076L23.741,35.514c-1.578-1.578-4.135-1.578-5.714,0
				s-1.578,4.135,0,5.714l55.419,55.419c-13.97,20.741-26.286,43.477-26.286,59.198c0,11.765,3.217,22.804,8.795,32.396
				l-37.283,37.283c-1.578,1.578-1.578,4.135,0,5.714c0.789,0.789,1.823,1.184,2.857,1.184s2.067-0.395,2.857-1.184l36.173-36.173
				c12.515,16.431,32.605,27.158,55.289,27.158c22.874,0,43.116-10.903,55.606-27.568l36.583,36.583
				c0.789,0.789,1.823,1.184,2.857,1.184s2.067-0.395,2.857-1.184c1.578-1.578,1.578-4.135,0-5.714L176.021,187.793z M115.848,54.66
				c5.893,6.896,19.444,23.167,32.241,41.447l-31.877,31.877L83.91,95.682C96.619,77.576,110.004,61.501,115.848,54.66z
				 M55.241,155.844c0-13.64,11.097-34.133,24.018-53.385l31.239,31.239L61.906,182.29
				C57.677,174.341,55.241,165.369,55.241,155.844z M115.848,214.141c-20.467,0-38.563-9.837-49.541-24.825l49.905-49.905
				l34.48,34.48c-7.021,11.971-19.992,20.049-34.844,20.049c-2.231,0-4.04,1.809-4.04,4.04c0,2.231,1.809,4.04,4.04,4.04
				c17.069,0,32.075-8.888,40.717-22.257l9.143,9.143C154.762,204.132,136.506,214.141,115.848,214.141z M170.033,181.806
				l-9.489-9.489c2.438-5.779,3.789-12.125,3.789-18.781c0-2.231-1.809-4.04-4.04-4.04c-2.231,0-4.04,1.809-4.04,4.04
				c0,4.361-0.715,8.552-1.998,12.49l-32.328-32.328l30.806-30.806c12.793,19.122,23.721,39.41,23.721,52.952
				C176.454,165.178,174.104,173.975,170.033,181.806z"/>
			<path d="M73.423,48.485c7.797,0,14.141-6.345,14.141-14.141s-6.345-14.141-14.141-14.141s-14.141,6.345-14.141,14.141
				S65.627,48.485,73.423,48.485z M73.423,28.283c3.342,0,6.061,2.719,6.061,6.061s-2.719,6.061-6.061,6.061
				s-6.061-2.719-6.061-6.061S70.081,28.283,73.423,28.283z"/>
			<path d="M113.827,28.283c7.797,0,14.141-6.345,14.141-14.141C127.968,6.346,121.624,0,113.827,0S99.686,6.345,99.686,14.141
				S106.031,28.283,113.827,28.283z M113.827,8.081c3.342,0,6.061,2.719,6.061,6.061c0,3.342-2.719,6.061-6.061,6.061
				s-6.061-2.719-6.061-6.061C107.766,10.8,110.486,8.081,113.827,8.081z"/>
		</g>
	</g>
</g>
<g>
</g>
<g>
</g>
<g>
</g>
<g>
</g>
<g>
</g>
<g>
</g>
<g>
</g>
<g>
</g>
<g>
</g>
<g>
</g>
<g>
</g>
<g>
</g>
<g>
</g>
<g>
</g>
<g>
</g>
</svg>
