<?xml version="1.0" encoding="iso-8859-1"?>
<!-- Generator: Adobe Illustrator 19.0.0, SVG Export Plug-In . SVG Version: 6.00 Build 0)  -->
<svg version="1.1" id="Layer_1" xmlns="http://www.w3.org/2000/svg" xmlns:xlink="http://www.w3.org/1999/xlink" x="0px" y="0px"
	 viewBox="0 0 496 496" style="enable-background:new 0 0 496 496;" xml:space="preserve">
<g>
	<g>
		<g>
			<path d="M100,328h64v-16h-64c-17.648,0-32,14.352-32,32v64c0,17.648,14.352,32,32,32h64v-16h-64c-8.824,0-16-7.176-16-16v-24h80
				v-16H84v-24C84,335.176,91.176,328,100,328z"/>
			<path d="M276,360v-16c0-17.648-14.352-32-32-32h-32c-17.648,0-32,14.352-32,32v64c0,17.648,14.352,32,32,32h32
				c17.648,0,32-14.352,32-32v-16h-16v16c0,8.824-7.176,16-16,16h-32c-8.824,0-16-7.176-16-16v-64c0-8.824,7.176-16,16-16h32
				c8.824,0,16,7.176,16,16v16H276z"/>
			<path d="M388,392v-32c0-26.472-21.528-48-48-48s-48,21.528-48,48v32c0,26.472,21.528,48,48,48S388,418.472,388,392z M308,392v-32
				c0-17.648,14.352-32,32-32s32,14.352,32,32v32c0,17.648-14.352,32-32,32S308,409.648,308,392z"/>
			<path d="M324,160c83.816,0,152-68.184,152-152V0H372c-83.816,0-152,68.184-152,152v8v72c0,22.056,17.944,40,40,40h56
				c57.344,0,104,46.656,104,104s-46.656,104-104,104H140c-57.344,0-104-46.656-104-104s46.656-104,104-104h40v-16h-40
				c-66.168,0-120,53.832-120,120s53.832,120,120,120h176c66.168,0,120-53.832,120-120s-53.832-120-120-120h-56
				c-13.232,0-24-10.768-24-24v-72H324z M372,16h87.768C455.608,87.28,396.304,144,324,144h-87.768C240.392,72.72,299.696,16,372,16
				z"/>
			<rect x="156" y="224" width="16" height="16"/>
			<rect x="188" y="224" width="16" height="16"/>
			<rect x="124" y="224" width="16" height="16"/>
		</g>
	</g>
</g>
<g>
</g>
<g>
</g>
<g>
</g>
<g>
</g>
<g>
</g>
<g>
</g>
<g>
</g>
<g>
</g>
<g>
</g>
<g>
</g>
<g>
</g>
<g>
</g>
<g>
</g>
<g>
</g>
<g>
</g>
</svg>
