<?xml version="1.0" encoding="iso-8859-1"?>
<!-- Generator: Adobe Illustrator 19.0.0, SVG Export Plug-In . SVG Version: 6.00 Build 0)  -->
<svg version="1.1" id="Layer_1" xmlns="http://www.w3.org/2000/svg" xmlns:xlink="http://www.w3.org/1999/xlink" x="0px" y="0px"
	 viewBox="0 0 501.333 501.333" style="enable-background:new 0 0 501.333 501.333;" xml:space="preserve">
<g>
	<g>
		<g>
			<path d="M381.653,437.76l-68.8-19.627l-7.787-31.253C387.52,363.2,448,287.253,448,197.333C448,88.533,359.467,0,250.667,0
				S53.333,88.533,53.333,197.333c0,89.92,60.587,165.867,142.933,189.547l-7.787,31.253l-68.693,19.627
				c-4.587,1.28-7.68,5.547-7.68,10.24v42.667c0,5.867,4.8,10.667,10.667,10.667h256c5.867,0,10.667-4.8,10.667-10.667V448
				C389.44,443.2,386.24,439.04,381.653,437.76z M74.667,197.333c0-97.067,78.933-176,176-176s176,78.933,176,176
				s-78.933,176-176,176S74.667,294.4,74.667,197.333z M368,480H133.333v-24l66.987-19.093c3.733-1.067,6.507-3.947,7.467-7.68
				l9.387-37.653c22.187,4.053,44.907,4.053,67.093,0l9.387,37.653c0.96,3.733,3.733,6.613,7.467,7.68L368,456V480z"/>
			<path d="M322.667,295.147c10.88,5.973,20.587,8.427,29.12,8.427c28.267,0,44.267-26.24,50.453-36.48
				c7.893-12.8,10.027-28.373,5.867-43.627c-5.227-19.307-19.52-36.693-39.253-47.573c-22.293-12.16-48.32-14.4-69.653-5.973
				c-0.853,0.427-1.707,0.96-2.347,1.493c-4.267-7.893-10.453-14.613-17.92-19.52c15.04-14.507,35.307-39.253,35.307-62.08
				c0-53.12-48.213-53.12-64-53.12c-35.307,0-64,33.387-64,74.347c0,21.013,7.68,40.747,20.8,54.613
				c-6.507,8.96-10.133,19.84-10.133,31.04c0.107,1.813,0.32,3.733,0.533,5.547c-20.16-5.333-50.133-9.707-69.12,1.173
				c-14.08,8-22.827,18.24-26.027,30.4c-5.013,18.773,4.373,38.08,11.947,50.987c10.987,18.987,32.107,29.227,55.04,29.227
				c14.507-0.107,28.8-3.947,41.28-11.2c20.907-11.84,35.093-31.467,38.933-52.693c0.213,0,0.427,0.107,0.64,0.107
				c13.227,0,25.92-5.013,35.627-13.973C291.2,256.107,302.827,284.267,322.667,295.147z M302.933,190.507
				c1.387,0,2.773-0.213,4.053-0.747c15.573-6.187,34.88-4.267,51.627,4.907c14.72,8.107,25.28,20.587,28.907,34.347
				c2.667,9.707,1.493,19.093-3.413,26.987c-16.107,26.453-29.973,32-51.093,20.48c-14.933-8.213-26.987-40.32-29.547-59.413
				c-0.32-1.92-1.173-3.627-2.347-5.013c1.6-4.907,2.347-10.027,2.453-15.147C303.467,194.773,303.253,192.64,302.933,190.507z
				 M250.24,58.24c31.467,0,42.667,8.32,42.667,31.787c0,16.213-21.547,41.707-37.12,54.08c-1.813-0.32-3.627-0.427-5.547-0.533
				c-9.707,0-19.307,2.773-27.627,7.893c-9.493-10.027-15.04-24.533-15.04-40.213C207.573,82.027,226.667,58.24,250.24,58.24z
				 M200,284.373c-25.387,14.507-55.573,10.027-67.307-10.133c-8.853-15.253-11.947-26.347-9.707-34.773
				c1.813-6.507,7.04-12.267,16.107-17.387c14.507-8.32,48.96-2.027,67.2,5.547c0.213,0.107,0.427,0.107,0.747,0.107
				c5.547,7.787,13.12,13.973,21.867,17.92C226.24,261.013,215.68,275.413,200,284.373z M250.24,229.333
				c-18.347,0-33.067-15.467-31.893-34.027c0.96-15.893,13.973-28.907,29.867-29.867c18.56-1.173,34.027,13.547,34.027,31.893
				C282.24,215.04,267.84,229.333,250.24,229.333z"/>
		</g>
	</g>
</g>
<g>
</g>
<g>
</g>
<g>
</g>
<g>
</g>
<g>
</g>
<g>
</g>
<g>
</g>
<g>
</g>
<g>
</g>
<g>
</g>
<g>
</g>
<g>
</g>
<g>
</g>
<g>
</g>
<g>
</g>
</svg>
